<?xml version="1.0" encoding="UTF-8" standalone="no"?>
<!-- Created with Inkscape (http://www.inkscape.org/) -->

<svg
   width="512"
   height="512"
   viewBox="0 0 512 512"
   version="1.1"
   id="svg1"
   xml:space="preserve"
   inkscape:version="1.4.2 (f4327f4, 2025-05-13)"
   sodipodi:docname="Dims Figure.svg"
   xmlns:inkscape="http://www.inkscape.org/namespaces/inkscape"
   xmlns:sodipodi="http://sodipodi.sourceforge.net/DTD/sodipodi-0.dtd"
   xmlns="http://www.w3.org/2000/svg"
   xmlns:svg="http://www.w3.org/2000/svg"><sodipodi:namedview
     id="namedview1"
     pagecolor="#ffffff"
     bordercolor="#000000"
     borderopacity="0.25"
     inkscape:showpageshadow="2"
     inkscape:pageopacity="0.0"
     inkscape:pagecheckerboard="0"
     inkscape:deskcolor="#d1d1d1"
     inkscape:document-units="px"
     inkscape:zoom="1.4142136"
     inkscape:cx="168.29141"
     inkscape:cy="232.99168"
     inkscape:window-width="2560"
     inkscape:window-height="1369"
     inkscape:window-x="-8"
     inkscape:window-y="-8"
     inkscape:window-maximized="1"
     inkscape:current-layer="svg1" /><defs
     id="defs1"><marker
       id="DistanceX"
       orient="auto"
       refX="0.0"
       refY="0.0"
       style="overflow:visible"><path
         d="M 3,-3 L -3,3 M 0,-5 L  0,5"
         style="stroke:#000000; stroke-width:0.5"
         id="path1" /></marker><pattern
       id="Hatch"
       patternUnits="userSpaceOnUse"
       width="8"
       height="8"
       x="0"
       y="0"><path
         d="M8 4 l-4,4"
         stroke="#000000"
         stroke-width="0.25"
         linecap="square"
         id="path2" /><path
         d="M6 2 l-4,4"
         stroke="#000000"
         stroke-width="0.25"
         linecap="square"
         id="path3" /><path
         d="M4 0 l-4,4"
         stroke="#000000"
         stroke-width="0.25"
         linecap="square"
         id="path4" /></pattern><symbol
       id="*MODEL_SPACE" /><symbol
       id="*PAPER_SPACE" /><marker
       id="DistanceX-0"
       orient="auto"
       refX="0.0"
       refY="0.0"
       style="overflow:visible"><path
         d="M 3,-3 L -3,3 M 0,-5 L  0,5"
         style="stroke:#000000; stroke-width:0.5"
         id="path1-9" /></marker><pattern
       id="Hatch-4"
       patternUnits="userSpaceOnUse"
       width="8"
       height="8"
       x="0"
       y="0"><path
         d="M8 4 l-4,4"
         stroke="#000000"
         stroke-width="0.25"
         linecap="square"
         id="path2-8" /><path
         d="M6 2 l-4,4"
         stroke="#000000"
         stroke-width="0.25"
         linecap="square"
         id="path3-8" /><path
         d="M4 0 l-4,4"
         stroke="#000000"
         stroke-width="0.25"
         linecap="square"
         id="path4-2" /></pattern><symbol
       id="*MODEL_SPACE-4" /><symbol
       id="*PAPER_SPACE-5" /></defs><g
     id="g1"
     transform="matrix(0.3649338,0,0,0.3649338,290.7624,-168.95173)"><g
       inkscape:label="0"
       id="g436"><path
         d="m 238.34402,1587.8484 -57.21822,9.7406 17.51174,6.2886 -38.85015,42.5002 37.73158,13.5513 38.85016,-42.5002 17.51174,6.2886 z"
         style="fill:#4d4d4d;stroke:#000000"
         id="path454" /><path
         d="m 259.08301,1530.8817 -37.85468,41.4084 9.45162,3.3878 27.27379,-29.8374 -1.96954,38.9305 9.45163,3.3878 37.85468,-41.4084 -9.45163,-3.3878 -27.27378,29.8374 1.96954,-38.9305 z"
         style="fill:#4d4d4d;stroke:#000000"
         id="path455" /><path
         style="fill:none;stroke:#000000;stroke-width:2.37029291;stroke-dasharray:none"
         d="m -643.111,1335.97 515.352,185.06"
         id="path429" /><path
         id="path430"
         style="fill:none;stroke:#000000;stroke-width:2.37029291;stroke-dasharray:none"
         d="m -589.955,1277.82 -53.156,58.15 m 0,0 -27.923,30.55" /><path
         id="path431"
         style="fill:none;stroke:#000000;stroke-width:2.37029291;stroke-dasharray:none"
         d="m -74.6031,1462.88 -53.1559,58.15 m 0,0 -27.923,30.55" /><path
         id="path434"
         style="fill:none;stroke:#000000;stroke-width:2.37029291;stroke-dasharray:none"
         d="m 105.236,1497.82 54.365,19.52 m -135.5074,-48.66 81.1424,29.14" /><path
         id="path435"
         style="fill:none;stroke:#000000;stroke-width:2.37029291;stroke-dasharray:none"
         d="m 464.182,1105.15 54.364,19.52 m -135.507,-48.66 81.143,29.14" /><path
         style="fill:none;stroke:#000000;stroke-width:2.37029291;stroke-dasharray:none"
         d="M 105.236,1497.82 464.182,1105.15"
         id="path436" /></g></g><g
     inkscape:groupmode="layer"
     id="layer1"
     inkscape:label="Layer 1"><g
       id="g453"
       transform="translate(249.5,2.5)"><path
         d="M -166.50457,207.94127 -22.686215,259.58579 -53.397153,158.88854 Z"
         style="fill:#ffffff;stroke:#000000;stroke-width:0.364934"
         id="path453" /><path
         d="M -22.686215,339.06432 V 259.58579 L -166.50457,207.94127 v 79.4785 z"
         style="fill:#f9f9f9;stroke:#000000;stroke-width:0.364934"
         id="path452" /><path
         d="m 19.56769,292.83969 v -79.48046 l -42.253905,46.22656 v 79.47853 z"
         style="fill:#e6e6e6;stroke:#000000;stroke-width:0.364934"
         id="path451" /><path
         d="M 63.819643,308.7323 V 229.2518 L 19.56769,213.35923 v 79.48046 z"
         style="fill:#f9f9f9;stroke:#000000;stroke-width:0.364934"
         id="path450" /><path
         d="m 152.55597,132.1776 -25.35351,27.73437 -63.382817,69.33983 v 79.4805 l 88.736327,-97.07618 z"
         style="fill:#cccccc;stroke:#000000;stroke-width:0.364934"
         id="path449" /><path
         d="M 91.651676,126.49205 152.55597,132.1776 75.114565,104.369 Z"
         style="fill:#cccccc;stroke:#000000;stroke-width:0.364934"
         id="path448" /><path
         id="path447"
         style="fill:#e6e6e6;stroke:#000000;stroke-width:0.364934"
         d="M 91.652344 126.49219 L 66.298828 154.22852 L 40.197266 151.79102 L 63.820312 229.25195 L 127.20312 159.91211 L 152.55664 132.17773 L 91.652344 126.49219 z " /><path
         d="M 66.298159,154.22838 91.651676,126.49205 75.114565,104.369 49.763003,132.10338 Z"
         style="fill:#f2f2f2;stroke:#000000;stroke-width:0.364934"
         id="path446" /><path
         d="M -4.0553553,135.90221 19.56769,213.35923 63.819643,229.2518 40.196596,151.79088 Z"
         style="fill:#ffffff;stroke:#000000;stroke-width:0.364934"
         id="path444" /><path
         d="M -30.156921,133.46471 -53.397153,158.88854 -22.686215,259.58579 19.56769,213.35923 -4.0553553,135.90221 Z"
         style="fill:#e6e6e6;stroke:#000000;stroke-width:0.364934"
         id="path443" /><path
         d="M -60.867855,92.376818 -166.50457,207.94127 -53.397153,158.88854 -30.156921,133.46471 Z"
         style="fill:#f9f9f9;stroke:#000000;stroke-width:0.364934"
         id="path442" /><path
         d="m -60.867855,92.376818 30.710934,41.087892 26.1015657,2.4375 44.2519513,15.88867 26.101563,2.4375 -16.535156,-22.125 z"
         style="fill:#cccccc;stroke:#000000;stroke-width:0.364934"
         id="path441" /></g></g><text
     xml:space="preserve"
     style="font-size:15.6891px;text-align:start;writing-mode:lr-tb;direction:ltr;text-anchor:start;fill:#000000;stroke-width:2.61486"
     x="385.03043"
     y="269.90161"
     id="text455"
     transform="matrix(0.92507686,0.32816194,-0.84040521,0.78286575,0,0)"><tspan
       sodipodi:role="line"
       id="tspan455"
       x="385.03043"
       y="269.90161"
       style="fill:#000000;stroke-width:2.61486">DIM-EW</tspan></text><text
     xml:space="preserve"
     style="font-size:15.238px;text-align:start;writing-mode:lr-tb;direction:ltr;text-anchor:start;fill:#000000;stroke-width:2.53967"
     x="-250.28876"
     y="456.23514"
     id="text456"
     transform="matrix(0.65601828,-0.66238967,1.1745422,0.33839816,0,0)"><tspan
       sodipodi:role="line"
       id="tspan456"
       x="-250.28876"
       y="456.23514"
       style="stroke-width:2.53967">DIM-NS</tspan></text></svg>
